<svg width="8" height="14" viewBox="0 0 8 14" fill="none" xmlns="http://www.w3.org/2000/svg">
<mask id="mask0_102_227" style="mask-type:luminance" maskUnits="userSpaceOnUse" x="0" y="0" width="8" height="14">
<path d="M0.383179 0.562988H7.36035V13.525H0.383179V0.562988Z" fill="white"/>
</mask>
<g mask="url(#mask0_102_227)">
<path d="M6.06155 0.562988H1.68718C0.965042 0.562988 0.383179 1.21239 0.383179 2.00726V12.0808C0.383179 12.8756 0.965042 13.525 1.68718 13.525H6.06155C6.77849 13.525 7.36035 12.8756 7.36035 12.0808V2.00726C7.36035 1.21239 6.77849 0.562988 6.06155 0.562988ZM0.762429 2.21507H6.9811V10.9222H0.762429V2.21507ZM1.68718 0.983801H6.06155C6.50314 0.983801 6.8772 1.33188 6.96551 1.79425H0.78321C0.871528 1.33188 1.24039 0.983801 1.68718 0.983801ZM6.06155 13.1042H1.68718C1.17805 13.1042 0.762429 12.6471 0.762429 12.0808V11.3431H6.9811V12.0808C6.9811 12.6471 6.57068 13.1042 6.06155 13.1042Z" fill="white"/>
</g>
</svg>
